<svg width="75" height="75" viewBox="0 0 75 75" fill="none" xmlns="http://www.w3.org/2000/svg">
<rect width="75" height="75" rx="20" fill="#FF9E83"/>
<path fill-rule="evenodd" clip-rule="evenodd" d="M55.1499 56.4417H57.3832V56.45C57.8434 56.45 58.2165 56.8231 58.2165 57.2833C58.2165 57.7436 57.8434 58.1167 57.3832 58.1167H20.6165C20.1563 58.1167 19.7832 57.7436 19.7832 57.2833C19.7832 56.8231 20.1563 56.45 20.6165 56.45H22.8499V55.825C22.8545 51.5711 26.3043 48.125 30.5582 48.125H31.4999L31.1999 47.5833C31.051 47.3255 31.051 47.0078 31.1999 46.75L32.3999 44.6667C30.3245 42.8895 29.0909 40.3225 28.9999 37.5917C27.0635 37.276 25.6254 35.6279 25.5749 33.6667V32.6083C25.6112 31.2906 26.707 30.2507 28.0249 30.2833H28.9999V29.375H27.7415C26.3514 29.2966 25.2644 28.1465 25.2644 26.7542C25.2644 25.3619 26.3514 24.2118 27.7415 24.1333H29.8332V19.8C29.8314 18.5355 30.4416 17.3482 31.4708 16.6135C32.5001 15.8788 33.8212 15.6875 35.0165 16.1L37.7165 17C38.5487 17.2832 39.4511 17.2832 40.2832 17L42.9915 16.1C44.1859 15.6908 45.5043 15.8838 46.5313 16.6181C47.5583 17.3524 48.1674 18.5375 48.1665 19.8V24.1333H50.2665C51.6566 24.2118 52.7437 25.3619 52.7437 26.7542C52.7437 28.1465 51.6566 29.2966 50.2665 29.375H48.9999V30.2833H49.9749C51.2927 30.2507 52.3885 31.2906 52.4249 32.6083V33.6667C52.3744 35.6279 50.9362 37.276 48.9999 37.5917C48.9091 40.3267 47.6721 42.8974 45.5915 44.675L46.7915 46.7583C46.9404 47.0162 46.9404 47.3338 46.7915 47.5917L46.4999 48.1167H46.7665H47.4415C51.6955 48.1167 55.1453 51.5627 55.1499 55.8167V56.4417ZM27.2415 33.6667C27.2827 34.7059 27.9953 35.5975 28.9999 35.8667V31.95H28.0249C27.627 31.9163 27.2768 32.2106 27.2415 32.6083V33.6667ZM45.0999 47.175L42.5249 51.8917L40.1999 49.575L44.2999 45.8L45.0999 47.175ZM50.7582 32.6083C50.7229 32.2106 50.3727 31.9163 49.9749 31.95H48.9999V35.8667C50.0045 35.5975 50.717 34.7059 50.7582 33.6667V32.6083ZM31.4999 19.8C31.4946 19.0739 31.8467 18.3915 32.4415 17.975C33.0308 17.5519 33.7885 17.4401 34.4749 17.675L37.1665 18.6C38.3503 19.0001 39.6328 19.0001 40.8165 18.6L43.5082 17.675C44.1946 17.4401 44.9522 17.5519 45.5415 17.975C46.1427 18.3878 46.5014 19.0708 46.4999 19.8V21.1167H31.4999V19.8ZM46.4999 22.7833H31.4999V24.1333H46.4999V22.7833ZM27.7332 27.7083C27.2407 27.6623 26.8641 27.2489 26.8641 26.7542C26.8641 26.2595 27.2407 25.8461 27.7332 25.8H50.2332C50.7257 25.8461 51.1023 26.2595 51.1023 26.7542C51.1023 27.2489 50.7257 27.6623 50.2332 27.7083H27.7332ZM30.6665 29.375V37.3C30.6665 41.9024 34.3975 45.6334 38.9999 45.6334C43.6022 45.6334 47.3332 41.9024 47.3332 37.3V29.375H30.6665ZM38.9999 47.1167C39.5215 47.1161 40.0423 47.0771 40.5582 47L38.9999 48.4167L37.4415 47C37.9574 47.0771 38.4783 47.1161 38.9999 47.1167ZM35.4749 51.9333L37.7999 49.6167L33.7332 45.8417L32.8999 47.2167L35.4749 51.9333ZM36.2249 56.4834H24.5165V55.8584C24.5211 52.5249 27.2247 49.825 30.5582 49.825H31.4415C31.7544 49.8223 32.0665 49.7944 32.3749 49.7417L34.5499 53.6667C34.6729 53.899 34.8984 54.0596 35.1582 54.1H35.2832C35.503 54.0969 35.7127 54.007 35.8665 53.85L36.0499 53.675C36.1496 54.0309 36.4719 54.2786 36.8415 54.2834L36.2249 56.4834ZM38.6082 54.3333L37.9665 56.4833H40.0332L39.3915 54.3333H38.6082ZM40.4665 52.6667H37.5499L37.4832 52.2917L38.9999 50.7333L40.5249 52.25L40.4665 52.6667ZM41.7749 56.4833H53.4915L53.4999 55.8167C53.4953 52.4832 50.7917 49.7833 47.4582 49.7833H46.7832C46.4077 49.7793 46.0336 49.7374 45.6665 49.6583L43.4249 53.7167C43.3018 53.949 43.0763 54.1096 42.8165 54.15H42.6915C42.4717 54.1469 42.2621 54.057 42.1082 53.9L41.9249 53.725C41.8251 54.0809 41.5028 54.3286 41.1332 54.3333L41.7749 56.4833Z" fill="#3D3D63"/>
<path d="M35.7335 39.0833C35.5297 39.1711 35.3693 39.3367 35.288 39.5432C35.2066 39.7496 35.211 39.9801 35.3002 40.1833C35.9398 41.6573 37.3933 42.6111 39.0002 42.6111C40.607 42.6111 42.0605 41.6573 42.7002 40.1833C42.8889 39.7599 42.6986 39.2637 42.2752 39.075C41.8517 38.8863 41.3555 39.0766 41.1668 39.5C40.7946 40.3659 39.9426 40.927 39.0002 40.927C38.0577 40.927 37.2057 40.3659 36.8335 39.5C36.6441 39.0818 36.1523 38.8956 35.7335 39.0833Z" fill="#3D3D63"/>
<path d="M35.3001 34.1667C35.7604 34.1667 36.1335 33.7936 36.1335 33.3334V32.375C36.1335 31.9148 35.7604 31.5417 35.3001 31.5417C34.8399 31.5417 34.4668 31.9148 34.4668 32.375V33.3334C34.4668 33.7936 34.8399 34.1667 35.3001 34.1667Z" fill="#3D3D63"/>
<path d="M42.7 34.1667C43.1603 34.1667 43.5334 33.7936 43.5334 33.3334V32.375C43.5334 31.9148 43.1603 31.5417 42.7 31.5417C42.2398 31.5417 41.8667 31.9148 41.8667 32.375V33.3334C41.8667 33.7936 42.2398 34.1667 42.7 34.1667Z" fill="#3D3D63"/>
</svg>
