<svg width="75" height="75" viewBox="0 0 75 75" fill="none" xmlns="http://www.w3.org/2000/svg">
<rect width="75" height="75" rx="20" fill="#FF9E83"/>
<path fill-rule="evenodd" clip-rule="evenodd" d="M58.1918 38.3667H57.9168V25.4417C57.9168 24.0609 56.7975 22.9417 55.4168 22.9417H20.9751C19.5944 22.9417 18.4751 24.0609 18.4751 25.4417V46.55C18.4729 47.0664 18.6765 47.5624 19.0409 47.9283C19.4052 48.2943 19.9004 48.5 20.4168 48.5H31.7584L30.9251 51.5833H29.8584C28.1896 51.5853 26.7409 52.7339 26.3584 54.3583H24.3084C23.8482 54.3583 23.4751 54.7314 23.4751 55.1917C23.4751 55.6519 23.8482 56.025 24.3084 56.025H47.3751C47.4534 57.0352 48.2952 57.8153 49.3084 57.8167H58.1918C59.2687 57.8167 60.1418 56.9436 60.1418 55.8666V40.3167C60.1418 39.2397 59.2687 38.3667 58.1918 38.3667ZM31.2501 24.6083H55.4168C55.877 24.6083 56.2501 24.9814 56.2501 25.4417V38.3667H49.3084C48.2315 38.3667 47.3584 39.2397 47.3584 40.3167V42.9417H31.2501V24.6083ZM46.5251 51.5833C46.8057 51.5863 47.0851 51.6198 47.3584 51.6833L47.3918 48.5H44.6584L45.4918 51.5833H46.5251ZM20.1418 25.4417C20.1418 24.9814 20.5149 24.6083 20.9751 24.6083H29.5834V42.9417H20.1418V25.4417ZM20.1418 46.55C20.1417 46.7033 20.2636 46.8288 20.4168 46.8333H47.3584V44.6083H20.1418V46.55ZM43.7501 51.5833H32.6251L33.4584 48.5H42.9168L43.7501 51.5833ZM46.5168 53.25H29.8584C29.1103 53.2514 28.4295 53.6826 28.1084 54.3583H47.3501V53.4417C47.0907 53.3147 46.8056 53.2491 46.5168 53.25ZM58.4668 55.8666C58.4668 55.9418 58.4369 56.0139 58.3838 56.067C58.3307 56.1201 58.2586 56.15 58.1834 56.15H49.3084C49.2333 56.15 49.1612 56.1201 49.1081 56.067C49.055 56.0139 49.0251 55.9418 49.0251 55.8666V54.6667H58.4751L58.4668 55.8666ZM49.0251 53.0333H58.4668L58.4751 40.3167C58.4751 40.1602 58.3483 40.0333 58.1918 40.0333H49.3084C49.152 40.0333 49.0251 40.1602 49.0251 40.3167V53.0333Z" fill="#3D3D63"/>
<path d="M55.4167 41.15H52.0833C51.6231 41.15 51.25 41.5231 51.25 41.9834C51.25 42.4436 51.6231 42.8167 52.0833 42.8167H55.4167C55.8769 42.8167 56.25 42.4436 56.25 41.9834C56.25 41.5231 55.8769 41.15 55.4167 41.15Z" fill="#3D3D63"/>
<path d="M27.6416 27.25H25.4166C24.9563 27.25 24.5833 27.6231 24.5833 28.0833C24.5833 28.5436 24.9563 28.9167 25.4166 28.9167H27.6416C28.1018 28.9167 28.4749 28.5436 28.4749 28.0833C28.4749 27.6231 28.1018 27.25 27.6416 27.25Z" fill="#3D3D63"/>
<circle cx="22.3582" cy="28.0833" r="0.833333" fill="#3D3D63"/>
<path d="M27.6416 31.6917H25.4166C24.9563 31.6917 24.5833 32.0647 24.5833 32.525C24.5833 32.9852 24.9563 33.3583 25.4166 33.3583H27.6416C28.1018 33.3583 28.4749 32.9852 28.4749 32.525C28.4749 32.0647 28.1018 31.6917 27.6416 31.6917Z" fill="#3D3D63"/>
<path d="M27.6416 34.4667H25.4166C24.9563 34.4667 24.5833 34.8398 24.5833 35.3C24.5833 35.7602 24.9563 36.1333 25.4166 36.1333H27.6416C28.1018 36.1333 28.4749 35.7602 28.4749 35.3C28.4749 34.8398 28.1018 34.4667 27.6416 34.4667Z" fill="#3D3D63"/>
<circle cx="22.3582" cy="32.525" r="0.833333" fill="#3D3D63"/>
<path fill-rule="evenodd" clip-rule="evenodd" d="M54.175 30.3C54.175 32.2974 52.5557 33.9167 50.5583 33.9167C48.5609 33.9167 46.9417 32.2974 46.9417 30.3C46.9417 28.3026 48.5609 26.6833 50.5583 26.6833C52.5557 26.6833 54.175 28.3026 54.175 30.3ZM52.3607 29.5641C52.0593 28.8344 51.3478 28.3584 50.5583 28.3583C49.4846 28.3583 48.6129 29.2263 48.6083 30.3C48.6049 31.0895 49.0779 31.8031 49.8063 32.1075C50.5347 32.412 51.3748 32.2472 51.9342 31.6902C52.4936 31.1331 52.662 30.2937 52.3607 29.5641Z" fill="#3D3D63"/>
<path d="M34.4417 31.75H39.4417C39.902 31.75 40.2751 31.3769 40.2751 30.9166C40.2751 30.4564 39.902 30.0833 39.4417 30.0833H34.4417C33.9815 30.0833 33.6084 30.4564 33.6084 30.9166C33.6084 31.3769 33.9815 31.75 34.4417 31.75Z" fill="#3D3D63"/>
<path d="M41.8501 32.8583H34.4417C33.9815 32.8583 33.6084 33.2314 33.6084 33.6917C33.6084 34.1519 33.9815 34.525 34.4417 34.525H41.8501C42.3103 34.525 42.6834 34.1519 42.6834 33.6917C42.6834 33.2314 42.3103 32.8583 41.8501 32.8583Z" fill="#3D3D63"/>
<path d="M44.3501 27.25H34.4417C33.9815 27.25 33.6084 27.6231 33.6084 28.0833C33.6084 28.5436 33.9815 28.9167 34.4417 28.9167H44.3501C44.8103 28.9167 45.1834 28.5436 45.1834 28.0833C45.1834 27.6231 44.8103 27.25 44.3501 27.25Z" fill="#3D3D63"/>
<path d="M39.0251 39.4667H34.4417C33.9815 39.4667 33.6084 39.8398 33.6084 40.3C33.6084 40.7602 33.9815 41.1333 34.4417 41.1333H39.0251C39.4853 41.1333 39.8584 40.7602 39.8584 40.3C39.8584 39.8398 39.4853 39.4667 39.0251 39.4667V39.4667Z" fill="#3D3D63"/>
<path d="M34.4417 38.3583H36.3917C36.852 38.3583 37.2251 37.9852 37.2251 37.525C37.2251 37.0647 36.852 36.6917 36.3917 36.6917H34.4417C33.9815 36.6917 33.6084 37.0647 33.6084 37.525C33.6084 37.9852 33.9815 38.3583 34.4417 38.3583Z" fill="#3D3D63"/>
</svg>
