<svg width="75" height="75" viewBox="0 0 75 75" fill="none" xmlns="http://www.w3.org/2000/svg">
<rect width="75" height="75" rx="20" fill="#B4E2E1"/>
<path fill-rule="evenodd" clip-rule="evenodd" d="M60.1001 53.5667L51.9501 42C55.6084 35.2109 53.9358 26.781 47.9625 21.903C41.9893 17.025 33.3951 17.0706 27.474 22.0118C21.5529 26.9529 19.9699 35.4002 23.7001 42.15L15.6501 53.5667C15.3519 53.9824 15.3126 54.5304 15.5484 54.9845C15.7842 55.4385 16.2552 55.7215 16.7668 55.7167H58.9834C59.495 55.7215 59.966 55.4385 60.2018 54.9845C60.4376 54.5304 60.3983 53.9824 60.1001 53.5667ZM26.7668 40.5917L29.7668 44.85L28.4334 46.7417L27.3501 45.6583C27.197 45.5064 26.9908 45.4197 26.7751 45.4167C26.5594 45.4197 26.3533 45.5064 26.2001 45.6583L24.0084 47.8333L22.6251 46.475L26.7668 40.5917ZM41.5668 29.0083L42.2501 28.0917L38.6001 28.0833V30.9H42.2501L41.5668 29.9833C41.3568 29.6922 41.3568 29.2994 41.5668 29.0083ZM37.7751 36.3083L42.5168 43.0417L40.8918 44.6667L38.4418 42.2167C38.1199 41.9098 37.6137 41.9098 37.2918 42.2167L34.9834 44.5L33.2251 42.7417L37.7751 36.3083ZM34.4001 46.2583L32.2668 44.125L25.2501 54.0917H50.3251L43.4751 44.375L41.4751 46.3833C41.1532 46.6902 40.647 46.6902 40.3251 46.3833L37.8751 43.9333L35.5501 46.2583C35.2282 46.5652 34.722 46.5652 34.4001 46.2583ZM45.8751 44.9583L48.9668 40.575L53.1334 46.4583L51.7418 47.8333L49.5418 45.6583C49.3886 45.5064 49.1825 45.4197 48.9668 45.4167C48.7511 45.4197 48.5449 45.5064 48.3918 45.6583L47.2084 46.85L45.8751 44.9583ZM32.4422 20.927C26.932 23.1161 23.3154 28.4458 23.3168 34.375C23.3148 36.5408 23.799 38.6795 24.7334 40.6333L25.6418 39.35C25.9102 39.0061 26.3222 38.8051 26.7584 38.8051C27.1947 38.8051 27.6066 39.0061 27.8751 39.35L30.7418 43.4083L36.6418 35.075C36.7256 34.9618 36.8303 34.8657 36.9501 34.7917V27.2917C36.9501 26.8314 37.3232 26.4583 37.7834 26.4583H43.8918C44.1928 26.4727 44.4626 26.6485 44.5974 26.918C44.7321 27.1876 44.7109 27.5089 44.5418 27.7583L43.2334 29.5L44.5418 31.2167C44.7115 31.4673 44.732 31.7903 44.5952 32.0604C44.4584 32.3305 44.186 32.5052 43.8834 32.5167H38.6001V34.775C38.7156 34.8515 38.8171 34.9474 38.9001 35.0583L44.8584 43.5583L47.8251 39.35C48.0936 39.0061 48.5055 38.8051 48.9418 38.8051C49.378 38.8051 49.79 39.0061 50.0584 39.35L50.8918 40.4917C53.4001 35.1192 52.3763 28.7601 48.3085 24.4464C44.2407 20.1327 37.9525 18.7379 32.4422 20.927ZM21.6834 47.8333L23.4334 49.5833C23.7554 49.8902 24.2615 49.8902 24.5834 49.5833L26.7834 47.3917L27.4918 48.1L23.6334 53.575C23.5255 53.733 23.4517 53.9118 23.4168 54.1H17.2584L21.6834 47.8333ZM51.9418 53.575C52.0472 53.7335 52.1182 53.9123 52.1501 54.1L58.5334 54.0917L54.1084 47.825L52.3584 49.575C52.0365 49.8819 51.5304 49.8819 51.2084 49.575L48.9918 47.375L48.1584 48.2083L51.9418 53.575Z" fill="#3D3D63"/>
</svg>
