<svg width="75" height="75" viewBox="0 0 75 75" fill="none" xmlns="http://www.w3.org/2000/svg">
<rect width="75" height="75" rx="20" fill="#F6DAC2"/>
<path fill-rule="evenodd" clip-rule="evenodd" d="M55.9999 39.0667L57.3749 39.4417C57.5972 39.4872 57.7913 39.6214 57.9124 39.8133C58.0335 40.0051 58.0711 40.2381 58.0166 40.4583L57.1833 43.4583C57.0652 43.9019 56.6106 44.1664 56.1666 44.05L55.8333 43.9583L54.0166 50.725C53.5802 52.3881 52.493 53.8057 50.9999 54.6583L46.1333 57.4583C44.7314 58.2721 43.0567 58.4742 41.5015 58.0172C39.9463 57.5603 38.6471 56.4844 37.9083 55.0417C37.8174 54.8659 37.7367 54.6851 37.6666 54.5H35.4499V54.775C35.4499 55.2352 35.0768 55.6083 34.6166 55.6083H30.1666C29.7064 55.6083 29.3333 55.2352 29.3333 54.775V54.5H23.4999C22.1192 54.5 20.9999 53.3807 20.9999 52V34.1667H20.7249C20.2647 34.1667 19.8916 33.7936 19.8916 33.3333V28.8833C19.8916 28.4231 20.2647 28.05 20.7249 28.05H20.9999V22C20.9999 20.6193 22.1192 19.5 23.4999 19.5H29.3333V19.225C29.3333 18.7648 29.7064 18.3917 30.1666 18.3917H34.6499C35.1102 18.3917 35.4833 18.7648 35.4833 19.225V19.5H53.4999C54.8806 19.5 55.9999 20.6193 55.9999 22V28.05H56.2749C56.7352 28.05 57.1083 28.4231 57.1083 28.8833V33.3333C57.1083 33.7936 56.7352 34.1667 56.2749 34.1667H55.9999V39.0667ZM39.6666 32.5H55.4416V29.7167H39.6666C39.3624 30.2627 38.9447 30.7373 38.4416 31.1083C38.9447 31.4794 39.3624 31.9539 39.6666 32.5ZM35.4833 21.1667H53.4999C53.9602 21.1667 54.3333 21.5398 54.3333 22V28.05H40.1666C40.1915 27.9038 40.2082 27.7564 40.2166 27.6083C40.2166 25.2151 38.2765 23.275 35.8833 23.275C35.7409 23.2802 35.599 23.2941 35.4583 23.3167L35.4833 21.1667ZM38.5749 27.6083C38.5749 26.1356 37.381 24.9417 35.9083 24.9417C35.201 24.9417 34.5227 25.2226 34.0227 25.7227C33.5226 26.2228 33.2416 26.9011 33.2416 27.6083V27.8917C34.4056 28.199 35.3134 29.11 35.6166 30.275H35.9083C37.381 30.275 38.5749 29.0811 38.5749 27.6083ZM31.5749 27.6083V27.8917C30.4078 28.1963 29.4963 29.1078 29.1916 30.275H28.9083C27.4355 30.275 26.2416 29.0811 26.2416 27.6083C26.2416 26.1356 27.4355 24.9417 28.9083 24.9417C30.381 24.9417 31.5749 26.1356 31.5749 27.6083ZM34.0749 31.1083C34.0749 30.1879 33.3287 29.4417 32.4083 29.4417C31.4878 29.4417 30.7416 30.1879 30.7416 31.1083C30.7416 32.0288 31.4878 32.775 32.4083 32.775C33.3287 32.775 34.0749 32.0288 34.0749 31.1083ZM30.9999 20.0583H33.7833V23.8333C33.2255 24.1347 32.7438 24.5594 32.3749 25.075C32.0078 24.5768 31.5392 24.1621 30.9999 23.8583V20.0583ZM23.4999 21.1667C23.0397 21.1667 22.6666 21.5398 22.6666 22V28.05H24.5833C24.5584 27.9038 24.5417 27.7564 24.5333 27.6083C24.5379 25.2137 26.4803 23.275 28.8749 23.275C29.0284 23.2802 29.1814 23.2942 29.3333 23.3167V21.1667H23.4999ZM21.5583 32.5V29.7167H25.1666C25.4713 30.265 25.8922 30.7399 26.3999 31.1083C25.8922 31.4767 25.4713 31.9517 25.1666 32.5H21.5583ZM23.4999 52.8333H29.3333L29.3666 38.9417C29.2139 38.9503 29.0609 38.9503 28.9083 38.9417C26.5137 38.9417 24.5712 37.0029 24.5666 34.6083C24.5746 34.4603 24.5913 34.3128 24.6166 34.1667H22.6666V52C22.6666 52.4602 23.0397 52.8333 23.4999 52.8333ZM28.8749 37.275C27.9222 37.275 27.0419 36.7667 26.5655 35.9417C26.0892 35.1166 26.0892 34.1001 26.5655 33.275C27.0419 32.4499 27.9222 31.9417 28.8749 31.9417H29.1583C29.4629 33.1088 30.3744 34.0203 31.5416 34.325V34.6083C31.5417 36.0682 30.368 37.2567 28.9083 37.275H28.8749ZM30.9999 53.9417H33.7833V38.3833C33.2281 38.0782 32.7472 37.6542 32.3749 37.1417C32.0078 37.6399 31.5392 38.0546 30.9999 38.3583V53.9417ZM33.2083 34.6083V34.325C34.3722 34.0177 35.2801 33.1067 35.5833 31.9417H35.8749C37.3477 31.9417 38.5416 33.1356 38.5416 34.6083C38.5416 36.0811 37.3477 37.275 35.8749 37.275C34.4022 37.275 33.2083 36.0811 33.2083 34.6083ZM35.4833 52.8333H37.2749C37.1107 50.5005 38.3001 48.2805 40.3333 47.125L42.9916 45.55C43.0583 45.5087 43.1062 45.4429 43.1249 45.3667L44.3333 40.8667L43.9999 40.775C43.5597 40.6532 43.2996 40.1998 43.4166 39.7583L44.2499 36.7583C44.368 36.3148 44.8226 36.0502 45.2666 36.1667L54.3333 38.6667V34.1667H40.1666C40.1988 34.2985 40.2238 34.4321 40.2416 34.5667C40.2416 36.9599 38.3015 38.9 35.9083 38.9C35.7667 38.9086 35.6248 38.9086 35.4833 38.9V52.8333ZM43.4416 56.5583C42.9449 56.5995 42.4448 56.5487 41.9666 56.4083C40.6761 56.05 39.6365 55.0932 39.1726 53.8368C38.7087 52.5805 38.877 51.1777 39.6249 50.0667C41.9666 51.0575 43.4845 53.3573 43.4749 55.9C43.4999 56.1667 43.4999 56.35 43.4416 56.5583ZM50.1666 53.2167C51.2551 52.5835 52.0512 51.548 52.3833 50.3333L52.5666 49.7C50.8736 49.8343 49.5659 51.2434 49.5583 52.9417C49.5635 53.1377 49.5858 53.3329 49.6249 53.525L50.1666 53.2167ZM52.9916 48.0583H52.7999C50.0772 48.0629 47.8712 50.269 47.8666 52.9917C47.8688 53.4869 47.9475 53.9788 48.0999 54.45L45.2916 56.0667C45.2373 56.0882 45.1844 56.1133 45.1333 56.1417V55.9917C45.1512 52.996 43.5042 50.2381 40.8583 48.8333C40.8962 48.808 40.9329 48.7804 40.9698 48.7526C41.0302 48.7071 41.091 48.6612 41.1583 48.625L43.8499 47C44.305 46.7442 44.6361 46.3138 44.7666 45.8083L45.9999 41.325L54.2249 43.525L52.9916 48.0583ZM45.2749 39.4083L55.7666 42.2667L56.1333 40.8333L45.6416 38.0167L45.2749 39.4083Z" fill="#3D3D63"/>
</svg>
