<svg width="75" height="75" viewBox="0 0 75 75" fill="none" xmlns="http://www.w3.org/2000/svg">
<rect width="75" height="75" rx="20" fill="#B4E2E1"/>
<path fill-rule="evenodd" clip-rule="evenodd" d="M36.9557 50.5454V45.39C36.9557 44.9632 36.6096 44.6171 36.1828 44.6171H26.6913C26.2645 44.6171 25.9184 44.9632 25.9184 45.39V50.5454C25.5497 50.6167 25.2855 50.9428 25.2924 51.3183C25.2924 51.7452 25.6384 52.0912 26.0653 52.0912H36.8166C37.2434 52.0912 37.5895 51.7452 37.5895 51.3183C37.5956 50.9404 37.3275 50.6134 36.9557 50.5454ZM30.6641 50.5454H27.4643V46.163H30.6641V50.5454ZM32.21 50.5454H35.4098V46.163H32.21V50.5454Z" fill="#3D3D63"/>
<path d="M43.7727 51.2874C44.2978 51.2874 44.7234 50.8617 44.7234 50.3367C44.7234 49.8116 44.2978 49.386 43.7727 49.386C43.2477 49.386 42.822 49.8116 42.822 50.3367C42.822 50.8617 43.2477 51.2874 43.7727 51.2874Z" fill="#3D3D63"/>
<path fill-rule="evenodd" clip-rule="evenodd" d="M53.5887 55.5848H55.7374C56.1643 55.5848 56.5103 55.9309 56.5103 56.3577C56.5103 56.7846 56.1643 57.1306 55.7374 57.1306H18.6374C18.2105 57.1306 17.8645 56.7846 17.8645 56.3577C17.8645 55.9309 18.2105 55.5848 18.6374 55.5848H20.7861V42.6771C20.4662 42.5183 20.1718 42.3125 19.9127 42.0665C19.1396 41.3251 18.7015 40.301 18.6993 39.2299C18.6912 39.1631 18.6912 39.0957 18.6993 39.0289L21.2035 29.9703C21.2997 29.6262 21.6193 29.3929 21.9764 29.4061H28.2293V27.2806H26.413C25.9861 27.2806 25.64 26.9345 25.64 26.5077V21.2673C25.64 20.8404 25.9861 20.4944 26.413 20.4944H47.9619C48.3887 20.4944 48.7348 20.8404 48.7348 21.2673V26.5077C48.7348 26.9345 48.3887 27.2806 47.9619 27.2806H46.1455V29.4061H52.4293C52.7864 29.3929 53.106 29.6262 53.2023 29.9703L55.7374 39.1681C55.7454 39.2348 55.7454 39.3023 55.7374 39.369C55.7389 40.8112 54.8994 42.1218 53.5887 42.7235V55.5848ZM43.4249 27.4352V29.2515H44.5997V27.4352H43.4249ZM27.1936 22.0402H47.189V25.7348H27.1859L27.1936 22.0402ZM30.9577 29.267V27.4506L29.7751 27.4352V29.267H30.9577ZM32.5035 27.2961H41.879V29.4216H32.4958L32.5035 27.2961ZM41.9022 55.5848H46.9107V46.1629H41.9022V55.5848ZM52.0429 55.5848H48.4565V45.39C48.4565 44.9632 48.1105 44.6171 47.6836 44.6171H41.1293C40.7024 44.6171 40.3564 44.9632 40.3564 45.39V55.5848H22.332V43.0867H22.5484C23.4841 43.0531 24.3716 42.6633 25.0294 41.9969C25.1479 41.8826 25.2564 41.7585 25.3541 41.6259C26.0602 42.5464 27.1542 43.0862 28.3143 43.0867C29.304 43.0944 30.2547 42.7013 30.95 41.9969C31.0643 41.8815 31.1727 41.7602 31.2746 41.6337C31.9807 42.5491 33.0711 43.0857 34.2271 43.0867C35.2167 43.0935 36.167 42.7005 36.8628 41.9969C36.9791 41.8806 37.0875 41.7566 37.1874 41.6259C37.8936 42.5464 38.9876 43.0862 40.1477 43.0867C41.1345 43.0914 42.0817 42.6986 42.7756 41.9969C42.8919 41.8806 43.0003 41.7566 43.1002 41.6259C43.8064 42.5464 44.9004 43.0862 46.0605 43.0867C47.05 43.0935 48.0004 42.7005 48.6961 41.9969C48.8105 41.8815 48.9189 41.7602 49.0208 41.6337C49.7253 42.5509 50.8167 43.088 51.9733 43.0867H52.0429V55.5848ZM49.7937 39.369C49.7937 40.574 50.7683 41.5521 51.9733 41.5564C52.5469 41.5619 53.0985 41.3362 53.5037 40.9303C53.8933 40.5443 54.1225 40.0252 54.1452 39.4772L51.8265 30.9751H48.271L49.1908 35.9914C49.266 36.4093 48.9899 36.8097 48.5725 36.8879H48.4334C48.0554 36.8941 47.7284 36.626 47.6604 36.2542L46.6866 30.9597H43.1002L43.5717 36.0377C43.591 36.2429 43.5276 36.4473 43.3955 36.6055C43.2634 36.7637 43.0737 36.8626 42.8684 36.8802H42.7988C42.3977 36.8818 42.062 36.5764 42.0259 36.1769L41.5467 30.9519H37.9603V36.1073C37.9603 36.5342 37.6143 36.8802 37.1874 36.8802C36.7605 36.8802 36.4145 36.5342 36.4145 36.1073V30.9288H32.8204L32.3412 36.1537C32.3051 36.5532 31.9694 36.8587 31.5683 36.857H31.4988C31.2934 36.8394 31.1037 36.7405 30.9716 36.5823C30.8395 36.4241 30.7761 36.2197 30.7954 36.0146L31.2669 30.9365H27.6805L26.7067 36.231C26.6387 36.6028 26.3117 36.8709 25.9338 36.8648H25.7946C25.3772 36.7865 25.1011 36.3862 25.1763 35.9682L26.0961 30.9519H22.5406L20.2219 39.3304C20.2474 39.946 20.5106 40.5279 20.9562 40.9535C21.369 41.3548 21.9265 41.5722 22.502 41.5564C23.6694 41.5025 24.5865 40.5376 24.5811 39.369C24.5811 38.9421 24.9272 38.5961 25.3541 38.5961C25.7809 38.5961 26.127 38.9421 26.127 39.369C26.127 40.5771 27.1063 41.5564 28.3143 41.5564C29.5224 41.5564 30.5017 40.5771 30.5017 39.369C30.5017 38.9421 30.8477 38.5961 31.2746 38.5961C31.7015 38.5961 32.0475 38.9421 32.0475 39.369C31.9992 40.1801 32.4045 40.9511 33.1 41.3712C33.7955 41.7914 34.6665 41.7914 35.362 41.3712C36.0575 40.9511 36.4628 40.1801 36.4145 39.369C36.4145 38.9421 36.7605 38.5961 37.1874 38.5961C37.6143 38.5961 37.9603 38.9421 37.9603 39.369C37.9646 40.571 38.9379 41.5444 40.14 41.5486C41.345 41.5444 42.3196 40.5663 42.3196 39.3613C42.3196 38.9344 42.6656 38.5884 43.0925 38.5884C43.5194 38.5884 43.8654 38.9344 43.8654 39.3613C43.8654 40.5693 44.8447 41.5486 46.0528 41.5486C46.6328 41.5563 47.1909 41.3275 47.5986 40.9148C48.0125 40.5067 48.2462 39.9502 48.2479 39.369C48.2479 38.9421 48.5939 38.5961 49.0208 38.5961C49.4476 38.5961 49.7937 38.9421 49.7937 39.369Z" fill="#3D3D63"/>
</svg>
